<svg xmlns="http://www.w3.org/2000/svg" viewBox="0 0 45.3 45.6"><circle fill="#111B44" cx="22.7" cy="23" r="21.6"/><path fill="#FFF" d="M9 13.8h27.2v18.4H9z"/><path fill="#111B44" d="M36.3 32.8H9c-.4 0-.7-.3-.7-.7V13.8c0-.4.3-.7.7-.7h27.2c.4 0 .7.3.7.7v18.4c0 .3-.3.6-.6.6zM9.7 31.5h25.9v-17H9.7v17z"/><path fill="#111B44" d="M22.7 25.6c-.9 0-1.8-.3-2.5-1L8.6 14.3c-.2-.2-.3-.5-.2-.7.1-.3.3-.4.6-.4h27.2c.3 0 .5.2.6.4.1.3 0 .6-.2.7L25.2 24.6c-.8.7-1.7 1-2.5 1zM10.8 14.5L21 23.6c.9.8 2.3.8 3.2 0l10.2-9.2H10.8zm13.9 9.6z"/><g><path fill="#111B44" d="M36.3 32.7H9c-.3 0-.5-.2-.6-.4-.1-.3 0-.6.2-.7l10.1-9.1c.3-.2.7-.2 1 .1.2.3.2.7-.1 1l-8.8 7.9h23.7l-8.8-7.9c-.3-.2-.3-.7-.1-1 .2-.3.7-.3 1-.1l10.1 9.1c.2.2.3.5.2.7-.1.2-.4.4-.6.4z"/></g></svg>